<svg width="137" height="128" viewBox="0 0 137 128" fill="none" xmlns="http://www.w3.org/2000/svg">
<path d="M63.9558 107.647L63.9524 107.664C63.9558 107.664 63.9558 107.664 63.9558 107.668C63.9558 107.656 63.9608 107.651 63.9608 107.647H63.9558ZM43.2852 78.7617C43.2852 78.689 43.2583 78.6162 43.213 78.5537C43.1407 78.4674 42.9609 78.3254 42.8585 78.3254C42.7862 78.3254 42.7106 78.3524 42.6501 78.4032C42.4955 78.5249 40.7415 80.0554 40.2711 83.8384C39.7922 87.6197 39.2613 88.6022 38.0818 90.2511C38.0365 90.3086 38.0163 90.383 38.0163 90.4523C38.0163 90.5572 38.1474 90.755 38.2415 90.8277C38.3053 90.8683 38.3725 90.892 38.4364 90.892C38.5456 90.892 38.6514 90.8413 38.7136 90.7449C39.9401 89.0673 40.5701 87.8226 41.0322 84.0193C41.2606 82.1709 41.8067 80.9195 42.2855 80.1298C42.7156 79.4212 43.0617 79.1303 43.1458 79.039L43.1592 79.0306C43.2382 78.9629 43.2852 78.8631 43.2852 78.7617ZM43.092 85.4432C43.092 85.2555 42.7929 85.0847 42.6031 85.083C42.4132 85.0847 42.262 85.242 42.2603 85.428V85.5126C42.2603 86.1586 42.0822 90.7398 38.7186 93.6012L36.2841 95.4394C36.1934 95.5053 36.143 95.6085 36.143 95.7133C36.143 95.7878 36.3127 95.8723 36.358 95.9332C36.4286 96.0245 36.5311 96.0702 36.6336 96.0702C36.7041 96.0702 36.7781 96.0482 36.8386 96.0059L39.2865 94.1508C42.9912 90.9732 43.0853 86.0977 43.092 85.499V85.4432ZM29.651 79.5582C29.651 79.5311 29.5888 79.4161 29.5888 79.3908C29.5888 79.2335 29.4813 79.0898 29.3217 79.061C29.3065 79.0559 29.0058 78.9934 28.5303 78.9883H28.5152C27.5222 78.9883 25.7312 79.291 24.3518 81.0447C22.6818 83.1619 22.2702 84.503 19.8558 86.2381C19.7634 86.3074 19.7097 86.4089 19.7097 86.5171C19.7097 86.5881 19.7315 86.6558 19.7769 86.715C19.8424 86.8113 20.0121 86.9534 20.1196 86.9534C20.1868 86.9534 20.254 86.9314 20.3162 86.8841C22.8565 85.0611 23.3589 83.5712 24.9466 81.5605C26.1714 80.0114 27.7171 79.7713 28.5958 79.7696H28.6563C28.8311 79.7696 28.9722 79.7797 29.0713 79.7949C29.1469 79.8034 29.199 79.8102 29.2242 79.8152L29.2377 79.8169L29.241 79.8203L29.2629 79.822C29.278 79.822 29.2965 79.8254 29.3149 79.8254C29.4712 79.8254 29.6106 79.7188 29.651 79.5582ZM20.7648 83.7099C21.2671 83.1602 21.6855 82.614 21.9778 82.2031C22.1257 81.9985 22.2433 81.8277 22.3223 81.7076C22.3626 81.6501 22.3911 81.6027 22.4163 81.5672C22.4197 81.5588 22.4281 81.552 22.4281 81.5419L22.4483 81.5216C22.497 81.4556 22.5138 81.388 22.5138 81.3305C22.5138 81.2138 22.334 81.0447 22.2349 80.9804C22.1794 80.9432 22.1139 80.9246 22.045 80.9246C21.9375 80.9246 21.8233 80.9804 21.7661 81.087L21.7426 81.1225C20.9698 82.269 21 82.2437 20.1364 83.1805C19.1905 84.2256 17.9321 85.2166 16.9358 85.2132H16.9156C16.7829 85.2132 16.6535 85.198 16.5241 85.1693C16.5023 85.1591 16.4721 85.1558 16.4485 85.1558C16.294 85.1558 16.2772 85.3215 16.2402 85.4821C16.2301 85.5058 16.2284 85.5363 16.2284 85.5599C16.2284 85.7155 16.336 85.8593 16.4922 85.8965C16.6636 85.937 16.8417 85.9624 17.0198 85.9624H17.0601C18.4277 85.9151 19.7651 84.8057 20.7648 83.7099ZM17.8716 81.7634C17.8716 81.7769 17.875 81.7905 17.875 81.8074H17.8783C17.8951 81.9815 18.0514 82.2521 18.2261 82.2521L18.2614 82.2487C18.3639 82.2386 19.5786 82.0509 21.3763 79.8541C22.3441 78.6687 23.0128 78.4911 23.3572 78.4911C23.5975 78.4911 23.6546 78.5655 23.7151 78.574L23.7302 78.5672C23.7672 78.6162 23.8394 78.6365 23.9066 78.6365C24.0074 78.6365 24.1065 78.5892 24.1788 78.5063C24.2225 78.4421 24.2393 78.2188 24.2393 78.1495C24.2393 78.0446 24.1939 77.9449 24.1065 77.8806C24.0679 77.8468 23.8041 77.6557 23.3505 77.654C22.7372 77.654 21.8686 77.999 20.8404 79.269C19.9802 80.3175 19.2879 80.857 18.8259 81.1377C18.4227 81.3829 18.2479 81.388 18.1757 81.4235C17.9976 81.4438 17.8716 81.5892 17.8716 81.7634ZM36.4504 108.825C36.4454 108.826 34.6645 110.352 33.1221 111.671C32.897 111.786 32.6584 111.901 32.398 112.034C31.6453 112.411 30.3734 113.066 29.4897 113.064C28.9873 113.061 28.653 112.866 28.6513 112.291C28.6513 112.17 28.6664 112.026 28.7017 111.868C28.7639 111.567 28.7991 111.268 28.826 110.976C28.8546 110.976 28.8781 110.972 28.905 110.964C29.1839 110.899 40.634 107.915 43.4986 93.9969C43.5019 93.9732 43.5053 93.9495 43.5053 93.9309C43.5053 93.7821 43.4011 93.6434 43.2482 93.613C43.2264 93.6062 43.2012 93.6045 43.1777 93.6045C43.0298 93.6045 42.8685 93.6147 42.8349 93.7669C41.4253 100.623 37.8903 104.725 34.7115 107.137C31.8183 109.327 29.2561 110.078 28.8159 110.206C28.8092 109.411 28.7336 108.796 28.6194 108.273C29.3502 108.031 31.5394 107.223 33.4682 105.655C33.5505 105.589 33.5925 105.496 33.5925 105.403C33.5925 105.332 33.5119 105.138 33.4615 105.082C33.3993 105.001 33.3036 104.96 33.2112 104.96C33.1406 104.96 33.0683 104.982 33.0112 105.033C31.2118 106.494 29.1335 107.27 28.4077 107.517C28.3589 107.362 28.3253 107.255 28.3253 107.255C27.7339 106.063 27.5525 105.153 27.5525 104.27C27.5475 100.638 31.5495 99.405 31.5462 99.4016L31.5394 99.3644C27.5071 99.3611 26.2487 97.0628 26.2454 94.927C26.2454 93.7872 26.7612 92.7539 27.2568 92.091C28.6883 90.1733 31.232 88.2539 32.1896 86.649C32.4097 86.2786 32.4954 86.0013 32.4954 85.7882C32.4954 85.2285 31.7427 85.1135 31.4924 85.1135C31.4269 85.1135 31.3815 85.1169 31.3815 85.1169L31.3697 85.1202L31.3647 85.1287C31.3613 85.1355 29.367 90.3593 24.9298 90.3542C24.8576 90.3542 24.7836 90.3542 24.7097 90.3525C22.9842 90.2832 22.4163 89.5662 22.2298 89.0166C22.2752 89.0047 22.3643 89.1451 22.4063 89.1062C24.6644 86.9703 26.2941 83.7166 26.3008 83.7099C27.3542 81.7634 29.3334 81.5334 30.2273 81.5283C30.491 81.5283 30.6372 81.552 30.6439 81.552C30.9127 81.5655 31.1244 81.4302 31.3613 81.4319C30.3885 82.0035 29.5821 82.7611 29.0041 83.5982C28.5639 84.2256 28.0969 84.853 27.739 85.3232C27.5592 85.5616 27.4046 85.7561 27.2971 85.8965C27.2433 85.9624 27.2047 86.0165 27.1728 86.0537C27.1577 86.074 27.1459 86.0892 27.1392 86.0977C27.1375 86.1011 27.1308 86.1045 27.1308 86.1078C27.0821 86.1704 27.0585 86.2448 27.0585 86.3142C27.0585 86.4106 27.0989 86.5053 27.1812 86.5712C27.2383 86.6169 27.4349 86.6879 27.5054 86.6879C27.5995 86.6879 27.6987 86.6473 27.7608 86.5695L27.7877 86.5357H27.7827C27.9456 86.3328 28.8462 85.1828 29.6577 84.0193C30.4961 82.8102 31.7982 81.7414 33.4733 81.3305C33.4951 81.3203 33.4985 81.3085 33.5018 81.3136C35.8842 80.9246 37.2149 79.9455 37.2451 79.9218C37.3275 79.8592 37.3728 79.7611 37.3728 79.6647C37.3728 79.5954 37.2267 79.4821 37.1813 79.4212C37.1175 79.3367 37.0234 79.291 36.9226 79.291C36.8621 79.291 36.7999 79.3113 36.7428 79.3485L36.6974 79.3789C36.4202 79.5751 34.5989 80.7809 31.4437 80.7825C31.1933 80.7825 30.9346 80.7741 30.6674 80.7572C30.6473 80.7538 30.4726 80.7335 30.1886 80.7335H30.1735C29.1889 80.7335 26.9174 81.0024 25.6892 83.2566C25.6892 83.2685 24.1066 86.375 22.0081 88.3993L21.835 88.4805C21.83 88.4839 19.4106 89.7387 17.3138 89.737C16.3276 89.737 15.4169 89.4596 14.8642 88.6462C14.0241 87.4201 13.7133 86.2989 13.7133 85.3029C13.7133 83.6879 14.5349 82.4145 15.2674 81.5841C17.5709 81.3338 18.7957 79.1828 18.8309 79.1591C20.212 77.0469 21.9375 76.5768 23.411 76.5632H23.4311C24.1267 76.5632 24.745 76.6901 25.1919 76.8101C25.6405 76.9353 25.9043 77.0587 25.9496 77.0621C28.1019 77.8316 30.0576 78.1292 31.8116 78.1292C38.1222 78.1207 41.8437 74.353 41.8974 74.3005C44.4647 71.6878 45.1669 70.0068 46.0574 67.7576C46.9613 65.5135 48.1156 62.5896 51.7732 57.0597C58.5139 46.8606 68.6971 46.1622 71.2795 46.1605C71.3702 46.1605 71.4156 46.1622 71.4828 46.1639C71.5869 46.7236 71.9079 47.1413 72.2388 47.3274C72.4337 47.444 72.6152 47.5083 72.7563 47.5438C72.8941 47.6994 73.1159 47.8871 73.4149 48.178C64.5254 48.0884 59.1355 51.1797 59.1355 51.1797C53.4046 54.1205 47.7577 63.6601 46.4203 69.3693C45.1367 75.0193 45.5853 83.1653 45.1921 92.6423C45.0124 97.1559 42.8366 101.216 40.6877 104.145C39.6124 105.603 38.554 106.772 37.7626 107.578C37.3678 107.979 37.0385 108.29 36.81 108.5C36.6033 108.693 36.4874 108.784 36.4538 108.825H36.4504ZM40.9733 73.3231C40.97 73.3231 40.97 73.3214 40.9666 73.3197V73.3231H40.9733ZM55.9937 46.9181L55.9903 46.9198V46.9215C55.9903 46.9215 55.9937 46.9198 55.9937 46.9181ZM40.9868 73.3146C40.9851 73.318 40.9818 73.3197 40.9801 73.3231C40.9851 73.3231 40.9868 73.318 40.9885 73.318H40.9868V73.3146ZM40.9801 73.2876L40.9817 73.2893V73.2859C40.9817 73.2859 40.9801 73.2859 40.9801 73.2876ZM13.9149 77.4156L13.9115 77.4578C13.9115 77.4578 13.9015 77.5813 13.9015 77.7791C13.7015 78.7989 14.6676 80.2904 14.6676 80.2904C14.7499 80.2363 15.0087 80.2431 15.1111 80.2363C15.8806 80.1754 16.5544 79.7341 17.0467 79.2656C17.5339 78.804 17.7893 78.3744 17.801 78.3592C19.3871 75.8902 21.62 75.1951 23.3555 75.1951H23.4127C25.0407 75.2002 26.2655 75.7244 26.3949 75.7836L26.4302 75.8005C28.4043 76.4905 30.2021 76.7611 31.8183 76.7611C34.7166 76.7611 37.0284 75.8885 38.6178 75.0142C40.0358 74.2346 40.7818 73.4702 40.933 73.3197C40.933 73.318 40.9297 73.318 40.9297 73.3129C40.9297 73.3062 40.933 73.3011 40.9364 73.2977C40.9397 73.2943 40.9431 73.2926 40.9498 73.2893H40.9549V73.2977C40.9582 73.296 40.9582 73.2943 40.9582 73.2943L40.9616 73.2926C43.4247 70.7577 43.9405 69.42 44.8544 67.1573C45.0174 66.7531 45.0611 66.7244 45.2577 66.2509L45.0813 66.4284C43.4667 67.7813 41.1195 69.1325 38.3288 69.1477C37.934 69.1477 37.02 68.9279 37.02 68.9279C32.8802 68.1567 29.1335 64.2351 29.0881 59.0434L29.0663 59.155C29.0663 57.9509 29.2847 56.554 29.7115 55.2062L29.6913 55.3161L29.8307 55.1961C29.6056 55.0946 29.4158 54.9745 29.1402 54.8934C29.1402 54.8934 29.0024 54.0918 28.8311 52.974C28.7991 52.9976 28.7605 53.0264 28.7067 53.0788C28.5438 53.2361 28.3186 53.5016 28.0851 53.921C27.618 54.7665 27.1241 56.2496 27.1241 58.7491C27.1241 59.5067 27.1728 60.3573 27.2769 61.3094C27.2769 61.3213 27.2786 61.3331 27.2786 61.3433C27.2786 61.5073 27.156 61.6493 26.988 61.668C26.9779 61.6696 26.9661 61.6696 26.9544 61.6696C26.7914 61.6696 26.5377 61.4397 26.5192 61.2705C26.41 60.2931 26.3646 59.4205 26.3646 58.6409V58.6037C26.3646 53.4627 28.4245 52.2468 28.527 52.2011C28.5421 52.1944 28.5572 52.1927 28.569 52.1927H28.5975C28.4413 51.4858 28.1422 50.718 27.4752 50.1718C27.445 50.2124 27.4097 50.2564 27.3542 50.275C27.329 50.3003 27.2971 50.3003 27.2316 50.3375C27.1526 50.3764 27.0434 50.4373 26.9073 50.5252C26.6469 50.7028 26.279 51.0038 25.9076 51.5128C25.1566 52.5326 24.3754 54.3488 24.3703 57.5569C24.3703 58.1877 24.4039 58.8759 24.4745 59.6268V59.6572C24.4745 59.8246 24.3502 59.9616 24.1822 59.9802C24.1738 59.9802 24.1586 59.9836 24.1502 59.9836C23.9856 59.9836 23.7302 59.8331 23.7151 59.6657C23.6428 58.8979 23.6076 58.186 23.6076 57.5332V57.4774C23.6076 51.9322 25.9597 50.1819 26.7628 49.7592C26.3898 49.5748 25.9715 49.4649 25.5027 49.4649C23.7386 49.4649 22.255 50.9869 21.7981 52.864C21.7611 53.1211 21.7342 53.4086 21.7342 53.735C21.7342 54.611 21.8871 55.6611 22.161 56.4255H22.1643L22.171 56.4374C22.1811 56.4712 22.1862 56.5084 22.1862 56.5439C22.1862 56.6775 22.0081 56.8331 21.8737 56.8821C21.8401 56.8956 21.8014 56.9007 21.7661 56.9007C21.6368 56.9007 21.5108 56.8212 21.462 56.6876C21.1478 55.8286 20.9849 54.7412 20.9832 53.7908C20.6169 54.1121 20.2288 54.5991 19.7365 55.3297C19.7365 55.3398 19.7533 55.3635 19.7567 55.3956C19.7567 55.3973 19.7567 55.4007 19.7533 55.4024C19.6962 55.8438 19.6777 56.2682 19.6777 56.6724V56.6792C19.6777 58.3297 20.0843 59.6217 20.4926 60.4943C20.9009 61.3686 21.3058 61.832 21.3075 61.832L21.3159 61.8388V61.8438C21.3663 61.903 21.3915 61.9774 21.3915 62.0518C21.3915 62.1432 21.3579 62.2311 21.2806 62.2954C21.2201 62.3478 21.0302 62.4966 20.9529 62.4966L21.0706 62.3765C20.9782 62.3765 20.7715 62.456 20.7077 62.3833C20.6824 62.3512 18.9166 60.3269 18.9133 56.7908C18.9133 56.7333 18.92 56.6775 18.9234 56.6234C18.5907 57.1087 17.7422 58.6003 17.7422 60.6973C17.7422 61.438 17.9018 62.1076 18.211 62.9397L22.334 66.2509C22.4163 66.3134 22.4533 66.4098 22.4533 66.5045C22.4533 66.5772 22.4315 66.6483 22.3811 66.7091C22.3223 66.7903 22.1862 66.9628 22.0938 66.9628C22.0249 66.9628 21.9543 66.9408 21.8955 66.8918L17.9321 63.7074C16.8266 63.0428 14.4895 61.925 11.2737 61.925C10.9898 61.925 10.6958 61.9318 10.395 61.9504C7.25823 62.1499 4.46586 63.5214 2.76389 65.6759C4.15168 65.0874 6.67523 64.2638 9.97164 64.2638C12.0634 64.2638 14.4609 64.5936 17.0685 65.5288C17.1995 65.5761 17.2802 65.7029 17.2802 65.8348C17.2802 65.8704 17.2718 65.9076 17.2584 65.9465C17.213 66.0801 17.1038 66.2678 16.9744 66.2678C16.9358 66.2678 16.9005 66.2627 16.8652 66.2509C14.3349 65.341 12.0147 65.0214 9.9918 65.0214C5.6974 65.0214 2.77565 66.4572 2.0868 66.8258C1.81294 67.3061 1.56932 67.6968 1.39795 68.2193C4.06263 67.1032 6.72059 66.7345 9.04085 66.7345C13.2546 66.7379 16.3494 67.9183 16.3712 67.9251C16.5023 67.9758 16.5779 68.0992 16.5779 68.2295C16.5779 68.27 16.5712 68.3106 16.5594 68.3461C16.509 68.473 16.4032 68.6641 16.2772 68.6641C16.2368 68.6641 16.1932 68.659 16.1679 68.6438C16.1411 68.6438 15.4001 68.3563 14.135 68.0671C12.8783 67.7864 11.1242 67.4972 9.09461 67.4972H9.05765C6.68531 67.4972 3.9551 67.8811 1.25178 69.1004C1.2333 69.1105 1.21818 69.1122 1.20473 69.1122C1.11233 69.5367 1.0468 69.9713 1.03168 70.4161C1.03168 70.4161 1.01656 70.504 1.01656 70.6596C1.01656 70.8202 0.966157 70.9302 1.03168 71.2092C1.06024 71.1145 1.12409 71.0299 1.22826 71.0029C4.1752 70.1506 6.29384 69.7633 8.25455 69.7633C10.558 69.7633 12.6178 70.3028 15.5144 71.2329C18.0665 72.0547 20.2759 72.2627 21.8804 72.2627H21.9157C23.5975 72.2627 24.5635 72.0328 24.5736 72.0328C24.5955 72.0243 24.6207 72.0192 24.6425 72.0192C24.792 72.0192 24.9248 72.1207 24.9601 72.2729C24.9668 72.2966 24.9685 72.3202 24.9685 72.3456C24.9685 72.4927 24.9365 72.7464 24.7904 72.7802C24.7702 72.7853 23.7151 73.0305 21.9493 73.0305C20.2943 73.0305 18.0144 72.814 15.39 71.9685C12.5002 71.0451 10.5227 70.526 8.32511 70.526C6.45177 70.526 4.3953 70.8997 1.47692 71.7436C1.45171 71.752 1.42483 71.7554 1.39963 71.7554C1.32906 71.7554 1.27026 71.7267 1.21146 71.6861C1.43827 72.2678 1.8415 72.8682 2.80086 73.57C2.80086 73.5615 2.7975 73.5531 2.7975 73.5429C2.7975 73.4398 2.8395 73.3366 2.93863 73.2859C3.91646 72.7193 5.2908 72.5773 6.65507 72.5705C9.01061 72.5739 11.3426 73.0542 11.3544 73.0576C11.509 73.0931 11.6098 73.225 11.6098 73.3755C11.6098 73.3975 11.6081 73.4195 11.6064 73.4398C11.5745 73.597 11.509 73.8203 11.3594 73.8203C11.3376 73.8203 11.3141 73.8186 11.2939 73.8152C11.2838 73.8135 9.01061 73.3366 6.74243 73.3366H6.66683C5.37313 73.3366 4.10295 73.5125 3.33178 73.9623C3.31834 73.9691 3.30825 73.9741 3.29481 73.9741C3.60732 74.1771 3.9551 74.3699 4.35833 74.5576C4.36169 74.5576 5.62515 74.8789 8.32847 74.8789H8.35368L8.34864 74.9026C8.34864 74.9026 8.28311 75.097 8.28311 75.4099C8.28311 76.0897 8.58889 77.3158 10.558 78.2374C10.8285 78.3609 11.1108 78.4116 11.3964 78.4116C12.6313 78.415 13.8796 77.4443 13.883 77.4409L13.9149 77.4156ZM72.4018 127.097C72.4068 127.1 72.4119 127.1 72.4136 127.097L72.4052 127.085L72.4018 127.097ZM57.8569 75.5587V75.557C57.8569 75.5587 57.6873 75.5131 57.6873 75.5131L57.8569 75.5587ZM51.4321 122.475C51.3817 122.428 51.3431 122.362 51.3364 122.279L51.333 122.259C51.328 122.213 51.3246 122.139 51.3246 122.02C51.3246 121.371 51.4641 119.524 52.8132 116.57L52.8048 116.556C52.8149 116.478 53.3576 115.567 53.3609 113.191C53.3609 112.956 53.3559 112.716 53.3424 112.457C53.25 109.878 50.9768 107.492 50.0057 106.57C49.9671 106.536 49.9284 106.504 49.8965 106.474C49.6411 106.771 49.3958 107.039 49.1589 107.27C49.3068 107.612 49.5722 108.256 49.7722 108.933C50.046 109.836 50.3669 110.221 50.372 110.24C50.4207 110.301 50.4459 110.379 50.4459 110.453C50.4442 110.553 50.3989 110.654 50.3182 110.724C50.2561 110.774 50.1284 110.91 50.0511 110.91C49.9519 110.91 49.8545 110.862 49.7873 110.778C49.7671 110.754 49.3656 110.24 49.0682 109.244C48.9254 108.777 48.749 108.315 48.6314 107.979C48.623 107.954 48.6095 107.928 48.6028 107.905C48.2903 108.2 48.1324 108.315 47.8619 108.517C47.8518 108.65 47.8383 108.811 47.8383 109.017V109.078C47.8383 109.888 47.9711 111.155 48.6129 112.447C49.6226 114.471 49.6882 116.245 49.6932 116.714C49.6932 116.79 49.6882 116.832 49.6882 116.832C49.6848 117.016 49.4479 117.197 49.2564 117.195L49.248 117.194C49.0716 117.185 48.9304 117.042 48.9254 116.854L48.922 116.857C48.9203 116.854 48.9203 116.849 48.9203 116.844C48.917 116.839 48.9203 116.837 48.922 116.832C48.922 116.818 48.9237 116.793 48.9237 116.747C48.9237 116.345 48.8632 114.681 47.9156 112.785C47.2066 111.356 47.0688 109.976 47.0688 109.092C46.6287 109.399 46.3094 109.611 45.9482 109.817C46.002 110.776 46.1767 113.078 46.6908 114.361C47.1965 115.641 47.3394 117.048 47.3394 118.236C47.3394 119.764 47.1075 120.924 47.1058 120.938C47.0705 121.102 46.9294 121.215 46.7698 121.215C46.7463 121.215 46.7211 121.214 46.7009 121.207C46.5396 121.176 46.3414 121.063 46.3414 120.901C46.343 120.887 46.3346 120.87 46.3481 120.853C46.3481 120.85 46.3464 120.843 46.3464 120.838C46.3464 120.814 46.5682 119.724 46.5682 118.264C46.5682 117.14 46.4321 115.804 45.97 114.644C45.5114 113.47 45.3114 111.728 45.2459 110.593C45.2375 110.47 45.2291 110.357 45.2224 110.248C44.7066 110.573 44.3773 110.852 44.0631 111.29V111.358C44.0631 111.733 44.1253 112.543 44.4361 114.111C44.636 115.119 44.7015 115.978 44.7015 116.649C44.7015 117.769 44.5251 118.381 44.5151 118.413C44.4714 118.562 44.3353 118.657 44.1908 118.657C44.1589 118.657 44.1253 118.655 44.0933 118.645C43.9455 118.601 43.759 118.501 43.759 118.351C43.759 118.323 43.759 118.293 43.7775 118.271L43.7724 118.257C43.7724 118.257 43.7724 118.254 43.7741 118.252L43.7775 118.239C43.796 118.134 43.9304 117.63 43.9304 116.685C43.9304 116.051 43.8682 115.242 43.6733 114.28C43.5322 113.548 43.4431 112.983 43.4045 112.54C43.3978 112.465 43.3877 112.394 43.381 112.323C43.3709 112.344 43.3625 112.359 43.3507 112.378C43.2163 112.65 43.0802 114.021 43.0164 115.266C42.9105 116.575 42.924 117.699 42.5896 118.41C42.1797 119.166 41.4925 120.221 41.4555 120.275C41.4438 120.393 41.4371 120.522 41.4371 120.645C41.4371 121.371 41.5916 122.198 42.0705 123.047C42.8181 124.389 43.7405 125.019 44.5184 125.013C45.0863 125.013 45.592 124.684 45.9432 124.056C46.012 123.923 46.0793 123.769 46.1297 123.608C46.1297 123.583 46.133 123.556 46.1515 123.544V123.541H46.1532C46.1582 123.537 46.1649 123.535 46.1733 123.534C46.1784 123.534 46.1851 123.534 46.1918 123.535L46.212 123.544L46.2086 123.547C46.2053 123.559 46.2053 123.583 46.2053 123.623C46.2086 124.065 46.3145 126.248 48.6028 126.248C48.7389 126.248 48.875 126.248 49.0312 126.233C51.1247 126.01 51.4305 123.992 51.4355 122.805C51.4355 122.702 51.4305 122.609 51.4305 122.522C51.4305 122.507 51.4305 122.49 51.4321 122.475ZM40.4323 119.653C40.4374 119.653 40.4458 119.643 40.4475 119.639L40.4458 119.636L40.4323 119.653ZM64.7119 115.465C64.7119 115.29 64.5741 115.134 64.3943 115.122L64.3624 115.119C63.9256 115.024 61.2474 114.77 61.2122 110.21C61.2122 109.753 61.2491 109.132 61.318 108.583C61.318 108.566 61.3197 108.557 61.3197 108.542C61.3197 108.371 61.0559 108.331 60.8845 108.314C60.8728 108.307 60.856 108.309 60.8392 108.309C60.6728 108.309 60.5283 108.439 60.5082 108.61C60.4343 109.183 60.404 109.712 60.404 110.203V110.248C60.404 115.509 64.1272 115.909 64.2061 115.91L64.2162 115.912H64.233L64.2532 115.917V115.912C64.4229 115.905 64.7001 115.665 64.7119 115.494V115.465ZM62.2656 117.74C62.2656 117.591 62.1665 117.454 62.0186 117.409C62.0052 117.403 59.1086 116.522 59.1036 113.598L59.1086 113.573C59.1086 113.286 59.1288 112.983 59.1842 112.668C59.1842 112.645 59.1859 112.624 59.1859 112.604C59.1859 112.44 58.9389 112.403 58.7743 112.374C58.7541 112.369 58.734 112.369 58.7138 112.369C58.5542 112.369 58.408 112.486 58.3828 112.653C58.3173 113.013 58.282 113.35 58.282 113.673C58.3055 117.177 61.6675 118.17 61.6792 118.175C61.7162 118.188 61.7515 118.195 61.78 118.195C61.9296 118.19 62.2018 117.985 62.2505 117.836C62.2606 117.803 62.2656 117.77 62.2656 117.74ZM62.2186 121.068C62.2186 120.892 62.2001 120.635 62.0253 120.61C61.9985 120.596 56.6758 119.874 56.6758 115.479V115.423C56.6758 115.093 56.701 114.747 56.7665 114.378C56.7665 114.354 56.7682 114.336 56.7682 114.319C56.7682 114.153 56.5448 114.119 56.3784 114.094C56.3566 114.091 56.4456 113.972 56.4238 113.972C56.2575 113.972 56.0138 114.207 55.9853 114.376C55.9198 114.784 55.8862 115.17 55.8862 115.537C55.908 118.093 57.3916 119.56 58.865 120.382C59.6093 120.789 60.3469 121.043 60.8946 121.192C61.1752 121.268 61.4054 121.317 61.5633 121.352C61.6456 121.364 61.7095 121.378 61.7515 121.384C61.7733 121.388 61.7901 121.389 61.8019 121.391L61.859 121.41V121.413H61.8842L61.8977 121.42V121.413C62.0589 121.401 62.1967 121.278 62.2152 121.112C62.2186 121.093 62.2186 121.083 62.2186 121.068ZM76.1569 118.296V118.515C76.1014 118.347 76.0342 118.175 75.9502 117.992C75.4966 116.92 74.4852 115.56 72.348 114.524C72.296 114.5 72.2388 114.49 72.1952 114.49C72.0658 114.49 71.9465 114.562 71.8877 114.682C71.8625 114.732 71.7835 114.891 71.7835 114.945C71.7869 115.07 71.8558 115.197 71.9767 115.254C75.5756 117.016 75.6176 119.561 75.631 119.822V119.852C75.631 119.971 75.6982 120.059 75.7755 120.111C75.6512 120.495 75.5907 120.796 75.458 121.232C75.3639 121.024 75.2597 120.806 75.1387 120.586C74.5137 119.389 73.4351 118.132 71.6474 117.606C71.6205 117.593 71.5869 117.586 71.5533 117.586C71.4055 117.586 71.1921 117.803 71.1535 117.95C71.14 117.978 71.1384 118.011 71.1367 118.041C71.1367 118.195 71.2425 118.332 71.3954 118.372C73.6686 119.007 74.675 121.149 75.0766 122.453C74.9237 123.015 74.8481 123.513 74.7573 124.181C74.7002 124.55 74.6364 124.865 74.5574 125.15C74.4969 124.893 74.4146 124.621 74.3104 124.332C73.7913 122.805 72.6773 120.953 70.3773 120.192C70.342 120.179 70.3017 120.174 70.268 120.174C70.1219 120.174 69.9925 120.27 69.9438 120.41C69.932 120.446 69.8581 120.593 69.8581 120.627C69.8581 120.772 69.9505 120.909 70.0916 120.953C73.1024 121.9 73.8518 125.167 74.0349 126.387C73.6031 127.068 73.1612 127.092 72.8118 127.095C72.6942 127.095 72.595 127.077 72.5278 127.063C72.4623 127.048 72.4236 127.033 72.4203 127.033C66.686 126.422 66.5634 122.521 66.5583 122.139V122.071L66.5415 122.083V122.073L66.5146 122.091C66.3197 122.193 66.1249 122.289 65.9384 122.384C64.6447 122.957 63.445 123.185 62.3513 123.185C60.3687 123.185 58.7155 122.429 57.5629 121.674C56.9816 121.295 56.5246 120.918 56.2155 120.635C55.9416 120.385 55.7971 120.217 55.745 120.17C55.745 120.167 55.7383 120.157 55.7232 120.157C55.7215 120.157 55.7148 120.157 55.7131 120.162L55.6997 120.146L55.6896 120.182C55.6913 120.182 55.6795 120.219 55.661 120.289C55.6442 120.339 55.6241 120.4 55.5972 120.486C55.3989 121.053 54.9201 122.245 54.1035 122.71C53.9019 122.822 53.6953 122.871 53.4769 122.871C52.9426 122.871 52.4755 122.634 52.0773 122.374C52.0958 122.348 52.1126 122.316 52.1126 122.267V122.259C52.1126 122.254 52.1059 122.21 52.1059 122.074C52.1059 121.53 52.2252 119.781 53.5273 116.903C53.5441 116.876 54.1489 115.768 54.1489 113.243C54.1489 113.002 54.1371 112.746 54.1271 112.484C53.9674 109.408 51.3683 106.856 50.4005 105.999C50.5131 105.884 50.5148 105.703 50.6274 105.557C50.9634 105.106 51.1902 104.734 51.4456 104.264C51.5901 104.519 51.7581 104.79 51.9362 105.074C52.3713 105.774 52.877 106.52 53.3307 107.162C53.6482 107.614 53.9372 108.011 54.1489 108.297C54.2497 108.439 54.3371 108.554 54.3959 108.633C54.4228 108.672 54.4446 108.703 54.458 108.723C54.4698 108.733 54.4765 108.742 54.4799 108.748L54.4816 108.745C54.5572 108.843 54.658 108.892 54.7588 108.892C54.8327 108.892 54.9033 108.87 54.9671 108.825C55.0511 108.757 55.1553 108.564 55.1553 108.461C55.1553 108.388 55.1318 108.315 55.0881 108.256L55.0864 108.258C54.9789 108.119 52.6973 105.063 51.8656 103.457C52.1764 102.794 52.3831 102.227 52.5679 101.521C52.709 101.845 52.8703 102.156 53.0434 102.451C53.4601 103.168 53.9473 103.787 54.3808 104.264C54.6882 104.604 54.9688 104.876 55.1738 105.062C55.2763 105.151 55.3586 105.224 55.414 105.271C55.446 105.297 55.4644 105.314 55.4796 105.327C55.488 105.332 55.4947 105.336 55.4964 105.341L55.498 105.343H55.5014L55.5048 105.346C55.5703 105.403 55.6442 105.427 55.7215 105.427C55.8223 105.427 55.9584 105.255 56.0239 105.167C56.071 105.102 56.0995 105.033 56.0995 104.954C56.0995 104.852 56.0474 104.754 55.9651 104.685C55.9584 104.675 53.4987 102.682 52.872 100.132C53.0014 99.4016 53.0669 98.7861 53.1072 98.0403C53.4332 98.6204 53.8062 99.2156 54.2094 99.8109C55.0663 101.091 56.0441 102.353 56.9178 103.411C57.5663 104.196 58.1493 104.867 58.576 105.343C58.7877 105.579 58.9591 105.769 59.0767 105.899C59.1355 105.961 59.1809 106.009 59.2128 106.048C59.2279 106.063 59.2431 106.076 59.2515 106.085C59.2548 106.09 59.2599 106.095 59.2615 106.097V106.095C59.3304 106.178 59.4245 106.208 59.5135 106.208C59.5959 106.208 59.6916 106.036 59.7538 105.977C59.8277 105.911 59.863 105.819 59.863 105.728C59.863 105.644 59.8311 105.561 59.7689 105.491L59.7673 105.495C59.6026 105.324 54.7201 100.048 53.1459 96.498C53.1425 95.8351 53.0871 95.3785 53.0467 94.7173C53.282 95.1164 53.5441 95.5442 53.8448 95.9958C55.0461 97.8289 56.8522 100.048 59.4245 102.163C62.7092 104.864 62.6504 107.448 62.6571 107.575V107.578C62.6504 107.673 62.6067 108.217 62.6067 108.672C62.6067 109.212 62.6302 109.924 62.7293 110.637C62.9074 112.205 64.3809 114.226 67.8369 114.292C68.1696 114.288 68.5258 113.945 68.5392 113.6C68.5358 113.592 68.5358 113.587 68.5358 113.587C68.5358 113.242 68.2704 112.956 67.9243 112.946C64.9723 112.812 64.3053 111.356 64.1037 110.264C64.0163 109.648 63.9928 108.985 63.9928 108.485C63.9928 107.984 64.0146 107.654 64.0146 107.647L64.0113 107.59V107.585C64.0146 107.575 64.0146 107.565 64.0146 107.565C64.0146 107.1 63.8164 103.888 60.2494 100.971C57.447 98.6694 55.6039 96.241 54.4547 94.3943C53.4298 92.7353 53.0064 91.5955 52.8989 91.3452H52.9006L52.8939 91.3368C52.8939 91.3283 52.8888 91.3215 52.8888 91.3215L52.8838 91.3097H52.877C52.872 91.3029 52.872 91.2979 52.8602 91.2911C52.8569 91.2522 52.8367 91.2251 52.825 91.2065C52.8216 91.1152 52.8098 91.007 52.8031 90.9021C52.5343 87.4709 51.2675 80.9364 51.2675 74.8366C51.2675 72.8107 51.4086 70.8371 51.7665 69.0581C52.7695 64.186 55.4863 60.1815 60.1604 57.8528V75.2915C59.7353 74.1314 59.6681 73.1742 59.6429 73.0965C59.6446 73.1032 59.6446 73.1015 59.6446 73.1015C59.6446 72.946 59.5169 72.8157 59.3539 72.7971C59.3388 72.7938 59.3237 72.7938 59.3187 72.7938C59.1607 72.7938 59.0246 72.7193 58.9893 72.8732L58.8129 73.0051C58.6634 73.6072 58.4786 74.2887 58.2635 74.7943C58.0703 75.278 57.9746 75.5638 57.9023 75.557V75.5587L57.8922 75.5536C57.8821 75.5536 57.862 75.557 57.8569 75.557C57.7225 75.5672 57.1379 75.0598 56.5229 73.4787C56.1331 72.5198 55.9853 71.6184 55.9853 70.7796C55.9802 70.7712 55.9786 70.7577 55.9786 70.7577C55.9853 68.035 57.5965 66.1088 57.6906 65.9583L57.6923 65.9549L57.741 65.9245H57.7175C57.7561 65.867 57.7729 65.8044 57.7729 65.7435C57.7729 65.6657 57.7461 65.5812 57.6906 65.5186C57.6217 65.4391 57.5293 65.4002 57.4302 65.4002C57.3664 65.4002 57.3042 65.4188 57.242 65.4577C56.3952 66.0192 55.8122 66.2187 55.5014 66.2187H55.488C55.073 66.217 55.0696 65.1973 55.0696 65.1973C55.0696 64.2655 55.5451 62.8839 55.5451 62.8839C55.5451 62.8839 55.5149 62.5862 55.1923 62.4848C55.1536 62.4712 55.115 62.4645 55.078 62.4645C54.9369 62.4645 54.8058 62.5524 54.7571 62.6928C54.7571 62.7012 54.5471 63.2931 54.4009 64.0169C54.1657 64.4346 51.9933 68.5322 51.9933 76.176C51.9933 76.296 52.0034 76.4195 52.0034 76.5379L52 76.5396L52.0051 76.5971C52.0303 79.012 52.2554 81.7752 52.8149 84.919C53.3979 88.1693 54.8764 90.9816 56.4624 93.3644C56.4624 93.3644 58.2635 95.9146 58.8197 96.6079C59.0986 96.9529 59.7387 97.6953 59.7387 97.6953C59.8093 97.768 59.8983 97.8103 59.9974 97.8103C60.0781 97.8103 60.3486 97.7782 60.4124 97.7156C60.4813 97.6497 60.5216 97.5567 60.5216 97.467C60.5216 97.3842 60.4931 97.303 60.4292 97.237C60.4175 97.2184 54.7588 91.0036 53.6717 84.8006C53.4332 83.4596 53.0803 82.2031 52.9527 81.0058C53.413 82.3536 54.0078 83.561 54.6664 84.6433C56.9379 88.3773 60.0075 90.5216 61.1567 91.237C62.3513 95.2212 64.6127 99.1734 67.9226 103.073C67.9679 103.125 68.0167 103.18 68.062 103.232C67.6504 103.667 67.0993 103.826 66.5348 103.826C66.1719 103.826 65.9921 103.766 65.6729 103.685C65.2495 103.039 63.7172 100.822 62.0573 99.1463C61.9867 99.0803 61.901 99.0448 61.8136 99.0448C61.7296 99.0448 61.6406 99.0803 61.5751 99.1463C61.5045 99.2089 61.2861 99.3002 61.2861 99.3881C61.2861 99.4727 61.318 99.564 61.3886 99.6316C62.5999 100.851 63.7626 102.402 64.4464 103.372V103.386L64.4414 103.393C64.4464 103.396 64.4464 103.398 64.4498 103.399C64.4531 103.411 64.4615 103.416 64.4682 103.425C64.4817 103.438 64.4935 103.45 64.5019 103.467C64.5707 103.574 64.6346 103.662 64.7119 103.756C64.9454 104.088 65.0664 104.279 65.0933 104.301C65.1134 104.34 65.1605 104.333 65.1571 104.34C65.6595 105.092 65.8191 105.735 65.8191 106.393C65.8191 107.037 65.6645 107.697 65.5284 108.495C65.4965 108.698 65.4797 108.896 65.4797 109.08C65.483 110.553 66.481 111.434 67.553 111.437C67.6336 111.437 67.7159 111.432 67.7983 111.42C68.7542 111.294 68.9038 110.585 70.2193 110.585C70.7015 110.585 71.3416 110.681 72.2338 110.938C75.1186 111.76 76.1569 116.221 76.1569 118.296ZM42.7879 109.049V109.044L42.9139 109.016C42.9677 108.948 42.8702 108.911 42.8702 108.838L42.9929 108.803C42.9929 108.71 42.9525 108.618 42.8769 108.554C42.8131 108.49 42.6031 108.493 42.5241 108.493C42.4317 108.493 42.3393 108.532 42.2721 108.61C42.2536 108.633 41.4119 109.58 40.55 111.512C39.8779 113.03 39.8174 115.455 39.809 116.636C39.809 117.045 39.8225 117.304 39.8225 117.304C39.8292 117.491 40.1098 117.606 40.2912 117.606H40.3047C40.4827 117.591 40.6323 117.437 40.6323 117.251V117.226H40.6289C40.6272 117.17 40.6188 116.942 40.6188 116.607V116.482C40.6188 115.303 40.7314 113.012 41.2926 111.765C42.1293 109.9 42.7728 109.1 42.7879 109.049ZM42.8954 106.102C42.9693 106.029 42.9105 105.892 42.9105 105.806L43.0063 105.85C43.0063 105.765 42.882 105.635 42.8198 105.569C42.7509 105.5 42.6619 105.461 42.5728 105.461C42.4838 105.461 42.4048 105.496 42.3359 105.562L42.341 105.573L42.3326 105.567C42.225 105.681 38.9572 108.811 38.428 111.332C37.9575 113.71 37.9021 115.885 37.9004 115.941V115.947C37.897 116.139 38.0482 116.287 38.2331 116.298L38.3288 116.34H38.3355C38.5187 116.336 38.6733 116.191 38.6783 116.003V116.002C38.6783 115.909 38.7371 113.796 39.1907 111.51C39.5822 109.416 42.6552 106.361 42.8954 106.102ZM41.4774 117.101C41.4471 117.349 41.4203 117.559 41.3967 117.708C41.385 117.784 41.3749 117.843 41.3631 117.882C41.3581 117.902 41.3547 117.918 41.3514 117.929C41.348 117.933 41.3463 117.935 41.3463 117.938H41.348C40.9431 118.667 40.3887 119.585 40.3752 119.621L40.3584 119.664C40.2459 119.683 39.767 119.69 39.6561 119.668C38.0818 119.35 36.6655 118.247 35.8742 115.533C35.7246 115.039 35.6692 114.522 35.6692 113.994C35.6692 112.829 35.9565 111.635 36.2522 110.72C36.5681 110.458 36.8436 110.221 37.0418 110.057C37.1359 109.973 37.2166 109.907 37.2703 109.859C37.2956 109.839 37.3191 109.822 37.3308 109.81C37.3392 109.802 37.346 109.797 37.346 109.797L37.3476 109.792H37.351L37.356 109.787C37.3762 109.751 46.1061 102.469 46.5396 92.7032C46.9244 83.1687 46.5749 75.1156 47.8031 69.765C48.964 64.4718 54.7353 54.934 59.863 52.4142C64.8211 49.9063 70.767 49.5393 73.6501 49.5393H73.6921C74.6162 49.5393 75.1757 49.5748 75.3185 49.5816C75.4042 49.6323 75.5016 49.7034 75.6108 49.749C76.3518 50.023 77.5732 50.045 78.9493 50.0568C79.9221 50.0568 80.9234 50.0281 81.708 49.9925C81.6576 50.0737 81.6106 50.1498 81.5669 50.231C81.1687 50.8854 80.9721 51.5771 80.8663 52.1149C79.7272 51.8561 76.5685 51.271 72.6656 51.271C66.6793 51.2778 58.9272 52.6324 54.0683 58.7694C54.0195 58.8353 53.9943 58.9081 53.9943 58.9859C53.9943 59.0856 54.038 59.1888 54.1304 59.2564C54.1892 59.3038 54.243 59.4492 54.3203 59.4492C54.4194 59.4492 54.5169 59.4019 54.5857 59.3207C56.1684 57.315 58.0888 55.8438 60.1604 54.7648V56.3359C54.7622 58.8117 51.459 63.3371 50.4005 68.8619C50.0242 70.7509 49.878 72.8022 49.878 74.8941C49.8847 81.1478 51.1734 87.7702 51.4204 91.056C51.5632 92.852 51.753 94.6885 51.753 96.6096C51.753 99.5133 51.286 102.354 49.4849 104.754C46.4018 108.884 44.4294 108.5 42.7291 110.641L42.7173 110.656L42.7291 110.663C42.7274 110.666 42.724 110.673 42.7274 110.673H42.724C42.6031 110.754 42.4216 111.201 42.0503 112.014C41.7361 112.783 41.6992 114.042 41.6034 115.337C41.5782 115.954 41.5295 116.602 41.4774 117.101ZM113.189 13.1517L113.172 13.1196C113.172 13.1196 113.17 13.1129 113.163 13.1044C113.125 12.9725 112.863 12.3316 112.863 12.3316C112.29 12.1371 112.335 12.2081 111.96 12.0289L111.858 11.8411C111.902 11.8462 111.944 11.853 111.986 11.8631C112.251 11.9426 112.468 12.0948 112.807 12.1066L112.827 12.1083L112.826 12.088H112.832L112.826 12.0644C112.824 12.0593 112.822 12.0525 112.822 12.0458C112.797 11.8344 112.725 11.4792 112.599 11.2442C112.528 11.1478 111.097 10.8146 111.097 10.8146L111.05 10.8062L111.369 11.6433C111.64 12.7087 112.337 13.0503 113.148 13.167L113.168 13.1687L113.17 13.1636H113.172L113.17 13.1619L113.172 13.1517V13.1501L113.189 13.1517ZM110.907 10.3411C110.907 10.3411 111.796 10.6083 112.337 10.7385L112.362 10.7436L112.389 10.7538L112.382 10.7318L112.362 10.6946C112.362 10.6946 112.35 10.6743 112.333 10.6405C112.246 10.446 111.947 9.84901 111.855 9.79659C111.502 9.64101 111.189 9.57844 110.966 9.49388C110.907 9.4719 110.687 9.38227 110.566 9.35859H110.563C110.547 9.3569 110.532 9.35521 110.522 9.35352C110.497 9.35352 110.457 9.36705 110.457 9.40763V9.40933H110.455L110.46 9.42793C110.552 9.70358 110.826 10.1483 110.907 10.3411ZM110.05 8.66355C110.682 8.79038 111.088 9.0711 111.693 9.17257L111.734 9.17934L111.722 9.16073L111.742 9.16242L111.471 8.74641L111.093 8.04967C110.692 7.93468 109.607 7.64888 109.607 7.64888L109.613 7.72667C109.618 7.72498 109.696 7.92284 109.764 8.11055C109.847 8.30503 109.963 8.63311 110.048 8.66016L110.05 8.66355ZM109.439 6.95722C109.608 7.06038 110.783 7.36816 110.998 7.40029H111.001L110.888 7.19905L110.69 6.84899C110.245 6.42959 109.907 6.26894 109.005 5.9713C108.918 5.94594 108.827 5.93917 108.736 5.93748C108.624 5.93917 108.511 5.94932 108.42 5.94932C108.351 5.95101 108.294 5.94594 108.266 5.92733L108.249 5.91719L108.232 5.95608L108.225 5.96961L108.215 5.98652L108.232 5.99667C108.892 6.30276 108.951 6.64098 109.439 6.95722ZM136.852 37.3633C136.848 37.365 136.852 37.3667 136.852 37.3667C136.855 37.9772 135.691 38.8177 135.692 38.8177C135.373 38.9817 134.866 39.0798 134.185 39.0798H134.155C133.187 39.0798 131.867 38.8921 130.208 38.4795C129.073 38.2935 127.991 38.0415 126.915 37.7743L126.907 37.7709L126.902 37.7777C126.21 38.2376 124.165 39.7275 124.165 39.7275L124.13 39.7563L124.155 39.7596L124.14 39.7766L124.183 39.7783C124.375 39.7935 124.56 39.8155 124.743 39.8374C125.675 39.9727 126.554 40.1537 127.569 40.1621C128.362 40.6255 128.595 41.5201 129.224 42.3842C129.378 42.5906 132.285 48.2997 132.374 48.8561C132.445 49.289 132.498 49.7017 132.498 50.0974C132.498 50.7434 132.366 51.342 131.998 51.9458C131.725 52.4058 131.06 52.8691 130.773 52.8657C130.751 52.8657 130.734 52.864 130.717 52.859C129.98 52.6577 129.409 52.1149 129.158 51.846C127.955 50.5388 125.692 46.4497 125.249 46.0049C124.529 45.7276 122.911 45.6227 122.087 45.5162L122.076 45.5145L122.061 45.5331C121.952 45.4925 121.85 45.4485 121.749 45.4079C120.709 44.9581 120.158 44.5827 120.07 44.5303C120.07 44.5286 120.064 44.5269 120.057 44.5218H120.05L120.049 44.5201L120.033 44.5167V44.5286H120.032C119.991 44.4846 119.931 44.4694 119.874 44.4694C119.768 44.4694 119.659 44.5218 119.595 44.6148C119.555 44.6757 119.536 44.745 119.536 44.8127C119.536 44.9243 119.585 45.1441 119.682 45.2067C119.701 45.2219 120.469 45.7529 121.935 46.3127C121.796 46.8792 121.594 47.4542 121.46 47.9463C119.422 47.3493 117.154 46.1689 117.122 46.1605C117.086 46.1351 117.034 46.1199 116.977 46.1199C116.851 46.1199 116.735 46.196 116.673 46.3161C116.648 46.3583 116.635 46.5275 116.635 46.5799C116.635 46.7033 116.702 46.8217 116.821 46.8877C116.829 46.8894 116.828 46.891 116.828 46.891C116.976 46.9621 119.22 48.1222 121.307 48.7073C121.142 49.3076 120.956 49.8167 120.759 50.3781C118.347 49.9334 116.136 48.643 115.966 48.5483C115.962 48.545 115.954 48.5433 115.947 48.5399L115.939 48.5348V48.5382L115.926 48.5365V48.5483C115.892 48.5111 115.838 48.4993 115.784 48.4993C115.673 48.4993 115.559 48.5602 115.494 48.6718C115.46 48.7225 115.44 48.8967 115.44 48.9576C115.44 49.0743 115.504 49.1893 115.611 49.2518C115.763 49.404 117.925 50.6335 120.543 51.1323C120.532 51.1645 120.517 51.1966 120.504 51.2271C120.196 51.9762 119.943 52.426 119.896 52.5563C119.887 52.5816 119.879 52.5968 119.872 52.6188C119.047 52.3736 118.493 52.1504 118.17 51.9931C117.848 51.8291 117.794 51.7547 117.747 51.731V51.7209L117.74 51.7276C117.738 51.7276 117.732 51.7259 117.728 51.7242C117.722 51.7259 117.718 51.7259 117.715 51.7276C117.71 51.7242 117.703 51.7192 117.696 51.7141C117.653 51.6583 117.58 51.638 117.515 51.638C117.424 51.638 117.337 51.6701 117.266 51.7361C117.201 51.802 117.167 51.8917 117.167 51.9762C117.167 52.0658 117.149 52.2062 117.214 52.2738C117.275 52.3313 117.785 52.7964 119.6 53.3071C119.6 53.3122 119.598 53.319 119.595 53.324C119.519 53.5253 119.45 53.7096 119.382 53.8889H104.939C105.067 52.8945 105.662 51.452 106.359 50.8888C107.831 49.4784 107.641 46.5951 107.856 44.3713C107.856 44.302 107.859 44.2377 107.859 44.1785V44.1599C107.859 43.6238 107.661 43.1351 107.306 42.8138C106.945 42.4891 106.493 42.364 106.05 42.364C104.729 42.3842 103.2 43.4141 102.94 45.2033C102.762 45.9778 102.686 45.8933 102.303 45.9609H102.268C102.093 45.9609 101.865 45.8933 101.628 45.7986C101.697 45.6768 101.767 45.5585 101.836 45.4418C103.33 42.9102 104.788 40.3718 104.964 39.8814C105.379 38.7365 107.31 35.8566 107.592 35.197C107.733 34.869 107.883 34.5071 107.903 34.0978C107.913 33.7765 107.952 33.4806 107.973 33.1542C107.999 32.8515 108.084 31.436 108.096 31.299C108.131 30.9405 108.301 27.9946 108.315 27.4653C108.315 27.3774 108.362 27.0932 108.362 26.9715C108.362 26.9529 108.358 26.9427 108.358 26.9394C108.289 26.3052 107.982 25.7657 107.942 25.1569C107.916 24.7325 107.889 23.3677 107.889 22.7944C107.889 22.7133 107.893 22.6473 107.893 22.6017C107.903 22.1434 107.994 21.5532 108.098 21.0272C108.301 20.0109 108.612 19.2161 108.97 18.2995C109.101 17.9596 109.166 17.6586 109.299 17.3305C109.439 16.9753 109.635 16.7031 109.838 16.3293L109.845 16.3192L109.837 16.3107C109.497 15.8372 109.081 15.3925 108.567 15.1168C107.233 14.4032 106.053 13.5475 104.669 12.0356C104.119 11.4437 104.277 10.0655 104.081 8.96118C103.787 7.33264 103.533 5.94932 102.861 4.5643C102.6 4.02315 102.095 3.47184 102.098 2.92393V2.92054C102.098 2.83937 102.106 2.76158 102.128 2.6821C102.239 2.28638 102.5 2.15109 102.863 2.15109H102.869C103.561 2.15109 104.573 2.69732 105.235 3.05076C105.994 3.45493 106.676 3.88955 107.276 4.06373L107.293 4.0705L107.296 4.05359L107.306 4.05528L107.305 4.02991V4.00962C107.318 3.92168 107.322 3.84896 107.322 3.77455C107.322 2.50284 107.38 1.33767 107.411 0.299326C107.611 0.202933 107.772 0.0355133 108.052 0H108.078C108.215 0 108.644 0.0625709 108.793 0.108231C109.24 0.260431 109.647 0.598652 110.107 0.874303C110.544 1.12966 110.946 1.36642 111.372 1.71309C112.007 2.22888 112.68 2.91716 113.215 3.65618C113.625 4.22439 114.334 5.4403 114.37 6.2385C114.405 6.83715 114.405 6.83715 114.422 7.24978C114.422 7.31912 114.423 7.39353 114.423 7.46455C114.423 8.03953 114.339 8.68384 114.338 9.36536C114.338 9.6038 114.35 9.84394 114.375 10.0875C114.449 10.6861 114.595 11.3389 114.665 11.9561C114.759 12.7543 114.775 13.6016 115.289 13.9838C115.899 14.4336 116.976 14.4759 117.804 14.782C118.269 14.9494 118.694 15.1473 119.15 15.2284C119.264 15.3536 119.403 15.4753 119.504 15.6495C121.866 17.2172 124.538 18.3502 126.813 19.9957C126.798 20.0312 126.793 20.0819 126.793 20.1326C126.798 20.4742 126.935 20.8835 126.935 21.2082C126.935 21.3147 126.922 21.4111 126.885 21.4906C126.777 21.6327 126.683 21.6868 126.46 21.8796C125.959 22.7082 126.068 23.4371 125.559 24.1152C125.432 24.2894 124.916 24.7697 124.62 24.8694C122.601 25.551 119.575 26.2815 117.95 27.3723L117.942 27.3824L117.945 27.3926C118.249 28.9264 119.966 32.126 120.442 33.1153C120.828 33.9118 121.409 34.5324 121.735 35.241L121.74 35.2579L121.757 35.2528C123.753 34.573 125.569 33.4366 127.132 32.8633C127.145 32.8582 127.177 32.8532 127.213 32.8532C127.683 32.8515 129.519 33.4501 129.97 33.5888C130.054 33.6125 130.38 33.7325 130.443 33.7511C130.892 33.9 131.359 34.064 131.862 34.2433C132.799 34.573 133.679 35.2292 134.661 35.8092C134.961 35.9885 135.413 36.2388 135.818 36.4806L135.833 36.489C136.253 36.7343 136.801 37.0234 136.848 37.2805C136.848 37.3075 136.852 37.3346 136.852 37.3633ZM55.4611 34.6187C55.4527 34.639 55.4493 34.6542 55.4409 34.6745C55.4426 34.6779 55.446 34.6863 55.4476 34.6897L55.4611 34.6187ZM56.3415 66.8529C55.9937 66.9966 55.7803 67.0355 55.5014 67.0423C55.4611 67.0423 55.4308 67.0338 55.409 67.0237C54.7285 68.4358 54.4732 72.1647 54.4614 72.3761V72.4065H54.458C54.3976 72.9307 54.369 73.4364 54.369 73.9251V73.9657C54.3673 79.0728 57.5814 82.0712 60.1604 83.6524V77.1754C59.7824 76.5548 59.5152 75.9257 59.3388 75.3609C59.275 75.163 59.2162 74.9685 59.1691 74.7876C58.9205 75.5925 58.5609 76.3028 57.8032 76.4026C57.0354 76.3383 56.533 75.5892 55.8139 73.9014C55.3905 72.8563 55.2225 71.8636 55.2225 70.9386C55.2275 69.469 55.6493 68.2108 56.1046 67.3078C56.1819 67.1471 56.2642 66.9933 56.3415 66.8529ZM60.1604 84.4844C57.3243 82.8017 53.4197 79.4736 53.5273 73.9251C53.5273 73.4059 53.5575 72.8631 53.6314 72.305V72.3016C53.6314 72.2966 53.6314 72.2864 53.6348 72.2729C53.6365 72.2425 53.6381 72.2019 53.6449 72.1461C53.6549 72.0395 53.6684 71.8822 53.6869 71.6962C53.7222 71.309 53.7826 70.7813 53.865 70.2047C54.0313 69.0513 54.2934 67.6815 54.6966 66.8174C54.4765 66.6364 54.4379 66.4893 54.3841 66.2086C54.374 66.1849 54.3673 66.1545 54.3623 66.1257C53.6953 67.9048 52.8434 71.1229 52.8434 76.1658C52.8434 76.2859 52.8502 76.4195 52.8535 76.5429C53.4449 84.0041 58.4483 88.3841 60.8409 90.0769C60.3923 88.2657 60.1604 86.4461 60.1604 84.6231V84.4844ZM72.6454 52.0794C69.3641 52.0794 65.5805 52.5021 62.069 53.8889H80.8444C80.789 53.6622 80.742 53.4272 80.7218 53.1566C80.7218 53.1566 80.7319 53.0518 80.7638 52.8996C79.6566 52.6679 76.5282 52.0794 72.6454 52.0794ZM36.1867 31.5831C36.1867 31.6846 36.2068 31.8081 36.2892 31.8774C40.0174 34.8301 44.1034 35.3273 44.1202 35.334L44.2278 35.3036C44.4025 35.3036 44.5856 35.2038 44.6007 34.9907H44.6024V34.9332C44.6444 34.6711 44.2832 34.6035 44.2832 34.6035C43.8648 34.5375 40.1064 33.9845 36.7428 31.3143C36.6756 31.2618 36.605 31.2365 36.5328 31.2365C36.4286 31.2365 36.3278 31.2838 36.264 31.3717C36.2119 31.4343 36.1867 31.5087 36.1867 31.5831ZM37.3006 28.0335C37.3006 28.1113 37.3006 28.184 37.351 28.2483C39.846 31.5307 43.1407 31.8165 43.1878 31.8199H43.2163C43.3961 31.8199 43.6263 31.6288 43.6347 31.4495V31.4225C43.6347 31.2449 43.5019 31.1029 43.3322 31.0826V31.0792H43.3138C43.3087 31.0792 40.2324 30.8729 37.9256 27.8221C37.8534 27.7376 37.7475 27.6885 37.6501 27.6885C37.5761 27.6885 37.5005 27.7105 37.44 27.7629C37.3476 27.8255 37.3006 27.9303 37.3006 28.0335ZM32.23 26.7009C32.23 25.7302 32.3728 24.9438 32.3728 24.3215C32.3728 24.0712 32.3677 23.7888 32.3677 23.4793V23.4438C32.3661 21.7291 32.5072 19.3226 33.9353 19.0774C34.2159 19.0233 34.4679 19.0013 34.7014 19.0013H34.7082C35.891 19.0013 36.5445 19.693 37.8735 21.3029L37.8786 21.3113H37.8886C37.8903 21.308 37.892 21.308 37.897 21.3046L37.9021 21.3029C37.976 21.2657 38.2263 21.1 38.6262 20.9325C39.0597 20.7448 39.6628 20.5588 40.3416 20.5588H40.3534C41.1918 20.5588 42.0822 20.875 42.966 21.8035C43.7204 23.9901 45.3114 25.0622 45.34 25.0842C45.3971 25.1214 45.5215 25.1096 45.5853 25.1096L45.5265 25.14C45.6391 25.14 45.8054 25.0572 45.8726 24.954L45.8104 24.9827C45.8457 24.9252 45.928 24.8322 45.928 24.7663C45.928 24.6547 45.8743 24.5464 45.7768 24.4771L45.7567 24.472V24.4703C45.6626 24.4095 44.1925 23.3711 43.5792 21.2995C43.6212 20.9545 43.6952 20.5047 43.8228 20.0075C44.1555 18.7256 44.1001 18.609 45.6962 18.5988H45.7147C47.299 18.5988 49.0262 18.6005 51.2372 20.1868C53.4735 21.795 55.5333 21.9523 57.5881 24.3452C59.07 26.06 59.564 28.1857 59.6732 29.6029C59.6866 29.8159 59.6916 30.0155 59.6916 30.1897C59.6916 30.4738 59.6732 30.7122 59.648 30.8779C59.5959 31.1959 59.5387 31.5713 59.4581 31.9467V31.9552L59.4934 31.9687V31.9636L59.5102 31.9704C59.5623 31.8351 59.6194 31.6863 59.6732 31.5307C59.8765 30.9794 59.989 30.7832 60.1537 29.9512L60.2343 29.6198C60.2999 29.6096 60.3687 29.4862 60.4141 29.4101C62.7209 25.5729 66.1282 24.6208 69.0752 24.6107C72.0574 24.6107 74.47 25.6237 74.5927 25.6626H74.5977C74.633 25.6812 74.6767 25.6879 74.7204 25.6879C74.8582 25.6879 74.9724 25.5357 75.0295 25.4123C75.048 25.3632 75.0564 25.3176 75.0564 25.2736C75.0564 25.1349 74.9791 25.0098 74.8481 24.9557C74.8262 24.9506 72.264 23.8565 69.0668 23.8514C69.0567 23.848 69.0449 23.848 69.0365 23.848C66.2122 23.848 62.862 24.7832 60.4527 28.0809C60.8745 25.37 63.2502 23.2899 65.6847 22.5273C65.6847 22.5273 66.8977 22.2448 68.4972 21.6834L68.3325 21.746C73.5174 21.9557 77.1784 23.7482 79.497 25.5222C81.8458 27.3131 82.8018 28.9991 82.874 29.0346C82.9093 29.1276 83.0236 29.1885 83.1378 29.1885C83.2017 29.1885 83.3781 29.1361 83.4285 29.1074C83.536 29.0414 83.5965 28.9264 83.5965 28.8114C83.5965 28.7522 83.5814 28.6913 83.5495 28.6372L83.5377 28.6254C83.5209 28.5916 79.6314 22.0909 69.9471 21.1101C70.0177 21.083 70.0849 21.0543 70.1538 21.0239C70.6343 20.8412 71.0073 20.6501 71.4828 20.4066C71.4912 20.4134 71.5248 20.4201 71.555 20.4201C71.555 20.4201 82.9194 22.1586 90.5657 31.0318C90.6917 31.1773 90.8681 31.2517 91.0462 31.2517C91.1907 31.2517 91.4528 31.1671 91.5721 31.064C91.7166 30.9354 91.7905 30.7596 91.7905 30.5837C91.7905 30.4349 91.7418 30.2827 91.6376 30.1609C85.3354 22.8925 77.1549 20.2646 73.4636 19.4291C73.4956 19.4122 73.5292 19.3987 73.5628 19.3835C73.8182 19.2939 73.9761 19.211 74.2785 19.0926C81.3771 19.6963 88.9057 24.6411 89.235 24.8356L89.2367 24.8373H89.2384C89.2417 24.839 89.2451 24.839 89.2451 24.839C89.2837 24.8728 89.3509 24.8914 89.4181 24.8914C89.524 24.8914 89.7491 24.8052 89.8113 24.7054C89.8516 24.6428 89.8718 24.5786 89.8718 24.5143C89.8718 24.4044 89.8147 24.2928 89.7155 24.2302L89.7105 24.2353C89.3476 23.9901 82.6775 19.6152 75.8175 18.5396C75.9032 18.5126 75.9939 18.4855 76.0813 18.4584C76.5702 18.3299 76.9667 18.2251 77.5044 18.1084C77.5044 18.1118 77.5228 18.1388 77.5682 18.1439C82.2759 18.4584 86.1419 20.9359 86.3553 21.0458L86.3603 21.0509C86.4023 21.0814 86.4662 21.1 86.53 21.1C86.6375 21.1 86.8643 21.012 86.9282 20.9106C86.9651 20.8514 86.9819 20.7888 86.9819 20.7228C86.9819 20.6095 86.9282 20.4996 86.8291 20.437C86.8106 20.4286 83.8569 18.4973 79.8801 17.7127C79.9254 17.7093 79.9657 17.7042 80.0077 17.7025C80.3959 17.689 80.7856 17.6721 81.1822 17.6721C81.577 17.6721 81.9735 17.6856 82.37 17.7279C87.78 18.2437 89.8583 18.472 90.1221 23.3796C90.1238 23.3796 90.1288 23.3846 90.1423 23.3897L90.149 23.3914C90.438 23.525 93.0943 24.609 94.6618 27.9016L94.6719 27.9219L94.6786 27.9371C95.1373 28.9095 95.3322 29.6992 95.3322 30.3436C95.3322 31.8808 94.23 32.5893 92.9078 32.9462C92.8809 32.9834 92.4121 34.8199 91.273 35.3492C90.5354 35.6858 89.2501 36.0612 87.8691 36.0612C86.8761 36.0612 85.8361 35.8718 84.9036 35.3492C83.5881 34.6187 83.1815 34.1469 83.0689 33.8898L83.0505 33.8492L83.0353 33.8898C83.0337 33.8915 83.0337 33.8983 83.0303 33.9033L83.0169 33.9067V33.9405C83.0068 33.9913 83.0068 34.042 83.0034 34.0978C83.0034 34.1215 83.0068 34.1435 83.0068 34.1655C83.0001 34.9028 82.7716 36.1018 81.1233 36.1052C78.7846 36.095 76.5047 35.9885 76.5047 33.2066C76.5047 33.1322 76.5114 33.0612 76.5131 32.9834C76.5265 32.635 76.5332 32.3238 76.5332 32.0364C76.5366 30.1609 76.1972 29.4033 75.2328 28.6203V28.6051C75.1992 28.5696 72.6051 26.1276 68.7912 26.1209C68.4199 26.1209 68.0301 26.1412 67.6386 26.197C63.3157 26.7313 62.8587 29.9445 62.605 31.299C62.1833 33.3064 60.814 34.918 59.4195 36.4434C58.2887 37.6863 57.8922 39.1508 57.8922 40.2568C57.8922 40.4868 57.9107 40.7016 57.9426 40.9028C57.5831 41.0297 57.1748 41.2664 57.1748 41.2664C57.1983 41.2191 57.0202 40.8842 56.9278 40.7692L56.911 40.7608C56.8791 40.6948 56.6674 40.4395 56.4288 39.9558C56.1684 39.4383 55.9231 38.7264 55.9231 37.9806C55.9231 37.6474 55.9718 37.3092 56.0911 36.9659C56.2944 36.3352 56.5229 35.5843 56.8741 34.7354C57.2941 33.7292 57.5915 32.3137 57.5932 30.768V30.7443C57.5932 28.2043 56.7329 25.233 53.9557 23.6552C53.8566 23.596 53.749 23.5707 53.6449 23.5707C53.4231 23.5707 53.2047 23.689 53.0921 23.8987C53.035 23.9968 53.0064 24.1017 53.0064 24.2099C53.0064 24.4314 53.1274 24.6496 53.334 24.768C55.1301 25.7826 55.955 27.5465 56.2155 29.3915C56.0592 29.1835 55.8828 28.9653 55.6795 28.7455C54.5471 27.4636 52.6217 26.0701 49.4966 25.4901C49.4748 25.4816 49.4513 25.4816 49.4345 25.4816C49.2715 25.4816 49.127 25.6017 49.0951 25.7657C49.0884 25.7877 49.0884 25.8097 49.0884 25.8283C49.0884 25.994 49.206 26.1395 49.3706 26.1682C52.3898 26.7313 54.1875 28.0673 55.2527 29.2579C55.7837 29.8514 56.1214 30.4044 56.3264 30.8086L56.2222 30.6294C56.2205 31.7117 56.0928 32.821 55.8475 33.6006L55.7904 33.5178C55.7148 33.3537 55.7316 33.3571 55.6325 33.1694C55.0091 31.9687 53.823 30.3537 51.7766 29.3559C48.2701 27.6699 43.9489 27.9574 42.1982 27.0713C40.345 26.1784 39.5335 24.1558 39.3621 23.7685C39.3621 23.7651 39.3571 23.7618 39.3571 23.7601C39.352 23.7432 39.3487 23.7296 39.3487 23.7279V23.711H39.3335C39.3302 23.7043 39.3268 23.6992 39.3151 23.6958C39.3083 23.6789 39.2983 23.6654 39.2915 23.6502C39.2462 23.5436 39.1319 23.4844 39.0194 23.4844C38.9841 23.4844 38.9471 23.4912 38.9102 23.503C38.7673 23.5521 38.6783 23.689 38.6783 23.8328C38.6783 23.8683 38.6833 23.9038 38.6968 23.9393C38.7102 23.9613 39.5066 26.5944 41.847 27.746C43.9522 28.7387 48.124 28.414 51.4254 30.029C54.1321 31.3278 55.1419 33.8458 55.4409 34.6745C55.1671 35.3678 55.0041 35.9699 54.8394 36.4637C54.779 36.6379 54.742 36.8087 54.7084 36.9778C54.6496 36.8679 54.6294 36.8509 54.5706 36.7444C54.2413 36.1187 53.8868 35.5336 53.5441 35.0499C52.042 32.8633 51.207 32.6096 49.5857 32.1327C49.5504 32.1175 49.5168 32.1108 49.4832 32.1108C49.3337 32.1108 49.1287 32.1361 49.0833 32.2816L49.0581 32.3678C49.0464 32.3966 49.0464 32.4642 49.0464 32.4997C49.0464 32.6468 49.1404 32.7838 49.2883 32.8295C50.9466 33.3622 51.3683 33.3622 52.8888 35.4913C53.4399 36.2709 54.0447 37.3498 54.5925 38.4017C54.7386 40.2433 55.8156 41.5776 55.8475 41.6148C55.9147 41.6977 55.9282 41.8904 56.0928 41.7873L55.9937 41.8279C55.7349 41.9429 55.5804 42.0274 55.3485 42.161C55.1855 42.2574 55.0326 42.3623 54.8697 42.4654C54.8646 42.4468 54.8512 42.4282 54.8428 42.4113C54.4127 41.5387 52.9594 38.7687 52.2672 37.9451C51.4405 36.9879 49.8394 35.9124 48.2701 35.4659C48.2416 35.4558 48.2113 35.4507 48.1828 35.4507C48.0299 35.4507 47.8938 35.5572 47.8518 35.7077C47.8417 35.7382 47.8383 35.7686 47.8383 35.7974C47.8383 35.9496 47.919 36.1644 48.0736 36.21L47.9912 36.1525C49.3958 36.5347 51.0138 37.6644 51.701 38.4846C52.3092 39.1948 53.8734 42.1204 54.2363 42.8222C53.7826 43.1199 53.4399 43.4919 53.0316 43.8521C52.9762 43.7439 52.9174 43.639 52.8552 43.5393C51.8942 41.8414 50.6979 40.825 49.7823 40.387C49.7318 40.3634 49.6814 40.3549 49.6344 40.3549C49.505 40.3549 49.3807 40.4259 49.3219 40.5545C49.2967 40.5984 49.2228 40.6069 49.2228 40.6542V40.7371C49.2228 40.869 49.206 40.9231 49.3253 40.984L49.4193 41.05C50.2527 41.444 51.501 42.4992 52.4621 44.3628C52.0219 44.7704 51.6774 45.1695 51.3095 45.6109C51.2725 45.5551 51.2339 45.4959 51.1902 45.4299C50.6828 44.6723 49.4445 43.2535 47.4637 43.2332C46.2674 43.2332 44.8746 43.7879 43.3238 45.2811C43.2499 45.3437 43.2163 45.4367 43.2163 45.528C43.2163 45.6143 43.2482 45.7005 43.3138 45.7682C43.3759 45.8392 43.4667 45.873 43.5607 45.873C43.6431 45.873 43.6985 45.9034 43.7657 45.8426L43.9035 45.7884C44.9368 44.6875 46.2809 44.0026 47.2553 44.0026C47.2553 44.0026 48.539 43.8099 49.8461 44.9767L49.9049 45.0545C50.4039 45.5517 50.7987 46.0472 50.876 46.1808L50.7769 46.2789C50.3266 46.8538 50.0343 47.2885 49.7419 47.8178L49.6579 47.9362C49.6546 47.9328 49.6495 47.9277 49.6445 47.926C49.4647 47.6926 48.465 46.6864 47.4486 46.5342C47.3511 46.5156 47.2553 46.5106 47.1646 46.5106C46.1498 46.5106 45.3114 47.324 45.0208 48.802C44.8914 49.4446 44.4243 49.6273 43.9035 49.6306C43.1777 49.6306 42.3746 49.2518 42.3729 49.2518L42.3645 49.2569L42.3695 49.2518C42.267 49.1977 40.7112 48.2811 40.3198 47.0365C39.5452 44.63 36.0287 45.4113 36.0338 41.7687V41.7653C36.0371 38.5454 39.0983 37.4242 41.4572 37.4225C41.7143 37.4225 41.9613 37.4361 42.1982 37.4648C42.2939 37.4783 42.3494 37.4834 42.3494 37.4834L42.3729 37.4851V37.4665C42.3645 37.4479 42.3595 37.4445 42.3561 37.4445V37.4242C42.3107 37.4175 42.2637 37.4141 42.2217 37.409C42.2032 37.4073 42.1797 37.4056 42.1595 37.4006C42.1125 37.3921 42.0671 37.3853 42.0217 37.3803C41.9529 37.3684 41.8806 37.3566 41.7966 37.3397C40.4273 37.0556 36.8285 36.0815 34.436 32.7821C32.5845 30.2336 32.23 28.2398 32.23 26.7009ZM29.9047 59.0078V59.0315C29.9047 64.0744 33.5673 67.5226 37.4249 68.2481H37.4283C37.7878 68.3174 38.1423 68.3495 38.5019 68.3495C38.5086 68.3495 38.522 68.3461 38.5355 68.3461H38.5422C41.7227 68.3461 44.6982 65.6708 45.9936 64.4177C46.8992 62.4408 48.2584 59.8805 50.666 56.2496C57.7444 45.5534 68.5493 44.8194 71.3316 44.8194C71.3349 44.8194 71.3417 44.8211 71.3484 44.8211C71.4576 44.8211 71.5483 44.8211 71.6206 44.838C71.7331 44.4237 71.8222 44.1041 72.1095 43.5714C72.3178 43.196 72.427 43.0032 72.7177 42.736C72.7479 42.7056 72.7782 42.6751 72.8118 42.6464C72.5261 42.643 72.4304 42.621 72.0742 42.621H72.0154C70.058 42.621 67.2018 42.7428 64.7841 43.3042C60.1906 44.3612 56.2776 46.7575 55.9987 46.9147L55.987 46.9401C55.9298 46.9756 55.866 46.9925 55.8072 46.9925C55.6913 46.9925 55.6694 46.8014 55.6073 46.7C55.5703 46.6425 55.5518 46.5765 55.5518 46.5122C55.5518 46.3989 55.6089 46.2873 55.7181 46.2248C55.7316 46.2197 59.8395 43.6272 64.7169 42.5043C67.2556 41.9226 70.1773 41.8025 72.1649 41.7991C72.9058 41.7991 73.3259 41.7061 73.7224 41.7298H73.8501C75.8746 40.3837 78.6485 40.3262 79.5608 40.2991C79.6919 40.2991 79.7843 40.3008 79.8448 40.3093V40.3059L79.8985 40.3093C80.2312 40.3228 80.495 40.6018 80.495 40.9383V41.1024C80.4782 41.4406 80.332 41.6807 79.9943 41.6824L79.9674 41.6807H79.954C79.9271 41.6807 79.8397 41.6774 79.6986 41.6774C79.6448 41.6757 79.586 41.6723 79.5289 41.6723C78.2234 41.6723 74.5389 42.068 73.5241 44.1312C73.0856 44.9395 72.9579 45.4841 72.9579 45.7851L72.9613 45.7918C72.9798 46.1689 73.0722 46.0759 73.1814 46.1689C73.2738 46.2315 73.3746 46.2484 73.388 46.2467C73.3931 46.2467 73.3948 46.2467 73.3964 46.2484L73.3998 46.2501C73.5426 46.2586 73.6753 46.3195 73.7644 46.4209C73.7778 46.4345 73.7879 46.4446 73.7997 46.4547L73.8114 46.4581C73.8232 46.4581 73.8366 46.4666 73.8417 46.475C73.9895 46.6205 74.9522 47.8414 75.8578 48.3674L75.8595 48.3657C75.9788 48.4384 76.1014 48.5027 76.2207 48.545C76.456 48.6633 77.4892 48.7817 78.704 48.7817H78.9493C80.7789 48.7817 82.7329 48.6718 83.0101 48.66C83.121 48.5889 83.2386 48.5196 83.3596 48.4553C84.3811 47.97 84.6701 47.6656 84.8566 47.4271C84.9473 47.3121 85.0498 47.1295 85.2161 46.9469C85.2212 46.9367 85.2279 46.9266 85.238 46.9164C84.7356 46.7676 83.988 46.6205 82.9799 46.6205C82.412 46.6205 81.7685 46.6661 81.0561 46.793C81.0393 46.7947 81.0175 46.7963 80.999 46.7963C80.8344 46.7963 80.6899 46.678 80.6613 46.5122C80.6563 46.4953 80.6563 46.47 80.6546 46.4514C80.6563 46.289 80.8865 46.0489 81.0494 46.0218C81.8055 45.8899 82.4859 45.8392 83.0908 45.8392C84.408 45.8392 85.3606 46.081 85.8798 46.2738L85.8848 46.2721C86.4409 45.8747 87.2676 45.4824 88.4756 45.479C88.82 45.479 89.1829 45.5196 89.5458 45.6295C89.5509 45.6312 89.5526 45.6312 89.561 45.6329C89.198 45.4688 88.6705 45.2541 87.9514 45.0241C86.6039 44.6013 84.6651 44.1768 82.3011 44.1768H82.281C80.4127 44.1768 78.2839 44.4389 75.9788 45.1746C75.9385 45.1864 75.9066 45.1898 75.8763 45.1898C75.7268 45.1898 75.6982 45.0038 75.6562 44.8583C75.6445 44.8262 75.6361 44.7924 75.6361 44.7569C75.6411 44.6081 75.6663 44.3578 75.8125 44.3155C78.1882 43.5579 80.4597 43.3938 82.3935 43.3938C86.0192 43.3938 88.6839 44.3561 89.8315 44.8753C89.9155 44.6706 89.9205 44.5725 90.0885 44.4119C90.5858 43.9113 91.1991 43.3583 91.7165 42.9372C91.7502 42.9051 91.7804 42.8781 91.814 42.851C90.1339 41.9649 85.9537 40.2196 77.9647 39.4028C75.9536 39.1948 74.0584 39.1052 72.2825 39.1052C64.3574 39.1052 58.739 40.9367 55.5686 42.7597C51.5145 45.0917 49.6126 49.4598 49.6142 50.4948H49.6075L49.6142 50.4965C49.6142 50.5946 49.6277 50.6656 49.6495 50.7096C49.8259 51.0901 50.9718 51.2 51.8387 51.1983H51.9177C52.2319 51.1983 52.5024 51.1882 52.6754 51.1882C52.741 51.1898 52.7846 51.1882 52.8216 51.1915C52.8384 51.1898 52.8451 51.1898 52.8468 51.1898L52.8502 51.1983C52.8602 51.2017 52.8686 51.2068 52.8737 51.2186L52.877 51.2254L52.8737 51.2321C52.8569 51.2541 50.9718 52.3533 49.5403 54.7496C48.1122 57.1425 45.8911 63.3946 41.7311 64.8456C40.0493 65.4324 38.5792 65.8196 37.2939 65.8196C35.4138 65.823 33.9319 64.9842 32.781 62.7486C32.4887 62.1787 32.4383 60.7717 32.4366 59.7756C32.4366 59.2091 32.4551 58.7914 32.4601 58.7339V58.7305C32.4601 58.7254 32.4585 58.7187 32.4585 58.7119C32.4551 58.695 32.4467 58.6713 32.4417 58.6426C32.4349 58.5851 32.4181 58.4988 32.3913 58.3923C32.3409 58.1758 32.2552 57.8849 32.1157 57.5518C31.8906 57.0208 31.526 56.3985 30.943 55.8725C30.7935 55.7457 30.6355 55.6189 30.4591 55.5056C30.0777 56.7434 29.908 57.9137 29.903 59.0078H29.9047ZM41.7832 37.3769H41.7933C41.7882 37.3769 41.7865 37.3752 41.7832 37.3752V37.3769ZM68.2015 38.6131H68.2048C68.2099 38.6131 68.2132 38.6114 68.2233 38.6097C68.2385 38.608 68.262 38.6029 68.2889 38.5945C68.3477 38.5793 68.4317 38.5606 68.5274 38.5251C68.729 38.4558 69.0029 38.3408 69.2936 38.1514C69.8749 37.7675 70.5217 37.0843 70.7872 35.8786C71.1904 34.0505 71.1636 32.6012 71.4156 31.0809C71.592 30.0493 72.9159 29.1074 73.7913 28.6051C73.8501 28.5645 73.9139 28.5324 73.9694 28.4986C73.7241 28.3261 73.4368 28.14 73.0823 27.9489C72.0826 27.4061 70.6847 26.8751 69.0516 26.8277C68.9189 26.9022 68.6114 27.0916 68.2569 27.5363C67.7899 28.1333 67.269 29.1513 67.1447 30.8577C66.9515 33.5905 66.6188 35.8667 64.9807 37.7591C64.6598 38.1243 64.149 38.6452 63.6937 39.0798C63.6164 39.1559 63.5391 39.232 63.4686 39.303C64.8244 39.0325 66.2979 38.8092 67.8907 38.6638L68.2015 38.6131ZM62.2068 39.5567C62.2135 39.5449 63.7475 38.0719 64.3708 37.3532C65.851 35.6486 66.1753 33.5803 66.3718 30.8577C66.4978 28.9974 67.0859 27.8424 67.6538 27.1693C67.7327 27.0713 67.9058 26.936 67.978 26.8599C67.894 26.8649 67.8117 26.8649 67.7311 26.8768C67.311 26.9326 66.9464 27.0205 66.6222 27.1051V27.1135H66.6138C66.5415 27.2336 65.9484 28.0284 65.4914 29.1902C65.0244 30.3452 65.0176 32.6249 64.4901 34.1113C63.9642 35.564 63.0183 36.9355 62.1682 37.7185C61.2054 38.6114 60.9299 39.4282 60.8325 39.8307C60.8257 39.8679 60.8224 39.9017 60.814 39.9372C61.2911 39.7969 61.6624 39.7207 62.1547 39.6227L62.2068 39.5567ZM94.7761 43.4209C94.1763 43.4209 93.5865 43.4598 93.2539 43.4868C92.7414 43.9181 91.8392 44.5895 91.1571 45.2811C91.0462 45.3961 91.0546 45.4147 91.0495 45.5043L91.0462 45.5213C91.0445 45.6599 91.2243 46.0032 91.4679 46.2586C91.6241 46.4344 91.7787 46.5714 91.8711 46.6458C91.9047 46.6712 91.9417 46.7 91.977 46.7304C92.1349 46.8538 92.1517 47.2005 92.1517 47.3865C92.1517 47.5185 92.1097 47.6554 92.0274 47.7738C91.898 47.9395 91.7098 48.0224 91.5166 48.0224C91.3923 48.0224 91.2562 47.9835 91.1453 47.8956L91.1268 47.882H91.1285C90.1389 47.1024 89.2955 46.8792 88.5814 46.8775H88.5714C87.7145 46.8775 87.0172 47.231 86.6174 47.5235C86.2981 47.7535 86.2897 47.882 85.9655 48.3285C85.6479 48.753 85.1221 49.2096 84.0081 49.7304C83.1664 50.1244 82.6775 50.9599 82.412 51.7598C82.16 52.5005 82.1146 53.1279 82.1096 53.1498C82.1331 53.4187 82.1818 53.6606 82.2457 53.8889H103.703C103.719 53.7417 103.724 53.5963 103.758 53.4526C103.761 53.4356 103.761 53.417 103.766 53.4001C102.849 53.5929 101.112 53.8736 98.6101 53.8736C95.6111 53.8736 91.5385 53.4712 86.5535 52.0506C86.4057 52.0067 86.2981 51.8714 86.2981 51.7209C86.2981 51.6887 86.2965 51.5213 86.3082 51.4909C86.3485 51.3404 86.4846 51.2389 86.6325 51.2389C86.6644 51.2389 86.6947 51.2406 86.7266 51.2524C91.6594 52.656 95.6632 53.045 98.6017 53.045C101.389 53.045 103.192 52.7017 103.908 52.5512C104.055 52.0388 104.274 51.6667 104.558 51.2101C104.585 51.1645 104.613 51.1154 104.64 51.0664C103.657 51.2812 101.737 51.616 99.4603 51.6177C97.7045 51.616 95.7438 51.4148 93.8654 50.7874C93.7243 50.7366 93.6252 50.4728 93.6252 50.3274C93.6252 50.2902 93.6285 50.2547 93.6453 50.2208C93.689 50.0737 93.8217 49.9824 93.9662 49.9824C94.0015 49.9824 94.0385 49.9858 94.0738 49.9976C95.8597 50.5946 97.7499 50.7941 99.4569 50.7941H99.4787C102.663 50.7941 105.164 50.1058 105.191 50.1042L105.218 50.1109C105.317 49.9976 105.426 50.023 105.541 49.9232C106.288 49.426 106.53 46.6425 106.633 44.3933C106.638 44.3578 106.638 44.3239 106.638 44.2918C106.576 43.7845 106.535 43.8251 106.095 43.749H106.068C105.4 43.7456 104.338 44.4373 104.233 45.479C104.141 46.6171 103.293 47.3443 102.444 47.3443C102.412 47.3443 102.377 47.3443 102.35 47.3426C101.649 47.324 100.989 47.0517 100.42 46.7067C100.184 46.6053 99.9593 46.4987 99.7761 46.3871C98.6471 45.7377 97.5365 44.1396 96.594 43.6746C96.2058 43.4733 95.5372 43.4209 94.8197 43.4209H94.7761ZM61.6154 37.2095C60.1285 38.5742 60.0361 39.8949 60.0361 40.1199L60.0378 40.1401L60.0411 40.1452C59.5387 40.2856 59.1473 40.4412 58.6869 40.612V40.568C58.6869 40.4682 58.6735 40.3549 58.6735 40.2298C58.6735 39.2828 59.0196 37.9772 60.026 36.8763C61.4222 35.3442 62.9024 33.648 63.3745 31.409C63.6248 30.2861 63.7575 28.5527 65.5486 27.5549C65.5267 27.5972 65.4108 27.6361 65.3839 27.6817C65.1705 28.0166 64.9572 28.4495 64.7656 28.9382C64.2263 30.3131 64.233 32.5775 63.7508 33.8746C63.2737 35.2072 62.3597 36.5262 61.6154 37.2095Z" fill="#9F9287"/>
<path d="M124.447 84.5742C124.471 96.7518 114.242 108.835 94.0233 120.49L92.7918 121.2L92.5465 121.344L92.3029 121.2L91.0697 120.49C70.8628 108.835 60.619 96.7535 60.651 84.5742V54.3828H124.447V84.5742Z" fill="white"/>
<path d="M61.1349 54.8729V84.6229C61.1349 90.5621 63.6299 96.5046 68.6635 102.432C73.6938 108.366 81.2561 114.263 91.3167 120.06L92.5499 120.777L93.7865 120.063C103.845 114.265 111.408 108.366 116.433 102.432C121.462 96.5029 123.953 90.5587 123.953 84.6229C123.953 84.6043 123.957 84.5857 123.957 84.5738V54.8729H61.1349ZM92.0627 121.624L90.8328 120.912C80.7067 115.075 73.0587 109.125 67.9226 103.073C62.7881 97.0221 60.1604 90.8495 60.1604 84.6229V53.8887H124.931V84.6229C124.933 90.8479 122.307 97.0221 117.177 103.073C112.039 109.125 104.391 115.075 94.267 120.912L93.0338 121.628L92.5465 121.907L92.0627 121.624Z" fill="black"/>
<path d="M92.2878 117.867C82.8858 112.445 75.7671 106.962 70.9838 101.454C66.2022 95.9464 63.7441 90.3792 63.7441 84.8324V57.707H121.352V84.8324C121.352 90.3792 118.894 95.9464 114.111 101.454C109.326 106.962 102.212 112.445 92.8053 117.867L92.5466 118.015L92.2878 117.867Z" fill="black"/>
<path d="M105.51 88.4992C105.51 82.7697 100.954 81.1834 98.5076 80.83V80.6998C101.396 79.6428 103.281 77.304 103.281 73.8694C103.281 68.7994 99.8198 66.2002 92.8137 66.2002H80.2967C80.0766 66.7752 80.0363 67.5683 80.0766 67.9201L83.3579 69.0666C84.0602 69.3287 84.4113 70.1219 84.4113 70.8304V85.3266L84.2837 91.8475C84.2366 93.0821 83.5814 94.1847 82.5733 94.4502L79.5978 95.2399C79.5541 95.8149 79.6398 96.696 79.7272 97.3572H94.1695C102.357 97.3572 105.51 93.652 105.51 88.4992ZM98.7243 74.397C98.7243 78.0109 97.2811 79.9066 92.2475 79.9066H88.3512V68.9347H91.8963C96.7536 68.9347 98.7697 70.2572 98.7697 74.397H98.7243ZM101.003 88.6311C101.003 93.4778 97.76 94.4502 93.3412 94.4502H88.5293L88.3512 85.4129V82.7291H91.6779C97.6323 82.7291 101.003 83.6068 101.003 88.6311Z" fill="white"/>
</svg>
